<svg xmlns="http://www.w3.org/2000/svg" data-name="Layer 1" width="667.92273" height="568.25004" viewBox="0 0 667.92273 568.25004" xmlns:xlink="http://www.w3.org/1999/xlink"><path d="M687.17828,243.295c-6.31,13.07-17.91992,22.8-30.08007,30.72a190.20416,190.20416,0,0,1-41.29981,20.18c-2,.7-4.02,1.37-6.04,2h-86.48c-.56006-.64-1.1001-1.31-1.62011-2-5.42969-7.18-8.33985-16.27-7.25-25.18,1.43017-11.68,10.30029-22.42,21.81-24.91,11.51026-2.48,24.62989,4.39,28.12012,15.63,1.93018-21.67,4.1499-44.25,15.66992-62.71,10.43018-16.71,28.51026-28.67,48.08985-30.81a60.55966,60.55966,0,0,1,33.48047,6.12994c.9497.48,1.88964.98,2.80957,1.5a56.01663,56.01663,0,0,1,16.14013,13.77C692.73834,203.075,695.72858,225.545,687.17828,243.295Z" transform="translate(-266.03864 -165.87498)" fill="#f2f2f2"/><path d="M664.38825,173.845a1.522,1.522,0,0,1-.61963,1.37006,316.96271,316.96271,0,0,0-90.3501,118.98c-.30029.66-.58984,1.33-.87012,2h-3.98c.27979-.67.56006-1.34.8501-2q5.68506-13.26,12.56982-25.98a321.831,321.831,0,0,1,34.89991-51.66,317.07019,317.07019,0,0,1,44.27-43.95,1.92277,1.92277,0,0,1,.42041-.26A2.0375,2.0375,0,0,1,664.38825,173.845Z" transform="translate(-266.03864 -165.87498)" fill="#fff"/><path d="M666.03864,294.195h-381a18.8896,18.8896,0,0,0-9.36036,2.47,18.52541,18.52541,0,0,0-1.96972,1.29,18.96417,18.96417,0,0,0-7.66992,15.24v198a19.01691,19.01691,0,0,0,19,19h381a19.01722,19.01722,0,0,0,19-19v-198A19.01722,19.01722,0,0,0,666.03864,294.195Zm17,217a17.02443,17.02443,0,0,1-17,17h-381a17.02411,17.02411,0,0,1-17-17v-198a17.09476,17.09476,0,0,1,11.77978-16.18c.14014-.04.27-.09.41016-.13a16.99649,16.99649,0,0,1,4.81006-.69h381a17.02442,17.02442,0,0,1,17,17Z" transform="translate(-266.03864 -165.87498)" fill="#3f3d56"/><path d="M803.257,552.46721a10.74273,10.74273,0,0,0,1.964-16.35513l5.972-71.21065-17.10528,1.88141L789.40147,536.091A10.80091,10.80091,0,0,0,803.257,552.46721Z" transform="translate(-266.03864 -165.87498)" fill="#ffb8b8"/><polygon points="476.337 556.443 464.077 556.442 458.245 509.154 476.339 509.155 476.337 556.443" fill="#ffb8b8"/><path d="M455.3202,552.93915h23.64387a0,0,0,0,1,0,0V567.826a0,0,0,0,1,0,0H440.43334a0,0,0,0,1,0,0v0A14.88685,14.88685,0,0,1,455.3202,552.93915Z" fill="#2f2e41"/><polygon points="563.337 556.443 551.077 556.442 545.245 509.154 563.339 509.155 563.337 556.443" fill="#ffb8b8"/><path d="M542.3202,552.93915h23.64387a0,0,0,0,1,0,0V567.826a0,0,0,0,1,0,0H527.43334a0,0,0,0,1,0,0v0A14.88686,14.88686,0,0,1,542.3202,552.93915Z" fill="#2f2e41"/><path d="M742.58237,693.02991c-.13282,0-.26636-.00586-.40064-.0166l-17.35181-1.38867a4.99972,4.99972,0,0,1-4.53759-5.78223l26.3081-162.71973,1.76221-22.95117a4.97171,4.97171,0,0,1,3.91626-4.501l26.46142-5.78808a4.96761,4.96761,0,0,1,5.19532,2.06055l6.45215,9.43066a110.39937,110.39937,0,0,0,8.24487,10.50879c4.57788,5.21387,12.36157,16.79,13.05981,35.73535a126.60915,126.60915,0,0,0,1.93384,18.55371l21.30347,114.76074a4.99837,4.99837,0,0,1-4.43921,5.76465l-16.44849,1.2461a4.97915,4.97915,0,0,1-5.302-3.67969l-29.17676-108.501a.99984.99984,0,0,0-1.93188.00293L747.4122,689.316A5.00546,5.00546,0,0,1,742.58237,693.02991Z" transform="translate(-266.03864 -165.87498)" fill="#2f2e41"/><circle cx="522.6869" cy="225.70313" r="24.56103" fill="#ffb8b8"/><path d="M747.096,503.86389l-.5083-35.07422c-1.87061-22.43261,8.064-34.21093,16.72778-40.13574a19.91866,19.91866,0,0,1,15.40332-2.94824l19.32959,4.17871a20.37247,20.37247,0,0,1,13.05493,9.29688,19.0207,19.0207,0,0,1,2.17236,15.00781,20.59705,20.59705,0,0,1-8.39965,11.50195C788.26718,477.41565,787.097,497.11,787.087,497.30823l-.02026.40723Z" transform="translate(-266.03864 -165.87498)" fill="#69b190"/><path d="M807.58774,477.78284h-17a4.50508,4.50508,0,0,1-4.5-4.5v-29.5a13,13,0,1,1,26,0v29.5A4.50508,4.50508,0,0,1,807.58774,477.78284Z" transform="translate(-266.03864 -165.87498)" fill="#69b190"/><path d="M693.44939,483.35582a11.03583,11.03583,0,0,1-16.49657.47722c-9.68635-10.15879,6.148-25.41276,15.87108-15.2321h0a10.67752,10.67752,0,0,1,.95239,1.12011l49.02808-1.21875,5.85205-10.70312,17.98486,6.9834c-3.45266,5.35453-7.41739,26.36974-16.448,25.34668C749.00924,490.161,694.66017,483.44219,693.44939,483.35582Z" transform="translate(-266.03864 -165.87498)" fill="#ffb8b8"/><path d="M759.03661,475.25744l-13.70531-10.058a4.50507,4.50507,0,0,1-.96545-6.2903l17.45368-23.78275a13,13,0,1,1,20.96107,15.38291L765.32692,474.292A4.50508,4.50508,0,0,1,759.03661,475.25744Z" transform="translate(-266.03864 -165.87498)" fill="#69b190"/><path d="M793.64511,404.34429a9.11113,9.11113,0,0,0-1.56015-10.15884c-4.62059-4.65884-11.83959-1.55137-18.08423-2.00752-10.4014-.75979-17.48511-13.16327-14.38025-23.11949s14.142-16.13441,24.55055-15.47933,19.832,7.09371,26.10525,15.42511c4.29392-6.91089,14.84339-7.71688,21.65162-3.262s10.33071,12.59614,11.78665,20.601,1.21817,16.23137,2.44413,24.27469c2.97175,19.49717,15.55523,37.85661,33.76319,45.43559s41.50776,2.70808,53.41972-13.01057a86.77,86.77,0,0,1-54.20135,91.15379c-9.86688,3.90544-20.763,5.97889-31.1503,3.80821-16.7697-3.50442-29.81372-17.84626-35.49835-34.00759s-5.00405-33.89472-2.24317-50.80274c1.7005-10.41417,3.58377-22.748-4.01165-30.07306a18.24258,18.24258,0,0,0-7.33545-3.6983A9.80151,9.80151,0,0,1,793.3127,405Q793.49755,404.67349,793.64511,404.34429Z" transform="translate(-266.03864 -165.87498)" fill="#2f2e41"/><path d="M881.81786,734.125h-228a1,1,0,0,1,0-2h228a1,1,0,1,1,0,2Z" transform="translate(-266.03864 -165.87498)" fill="#3f3d56"/><path d="M475.12211,412.11086a8.98713,8.98713,0,0,1-4.33887-1.11865L271.74,301.43947a.99991.99991,0,0,1,.96435-1.75195L471.7476,409.24026a6.98192,6.98192,0,0,0,6.64135.05859L680.70853,302.56936a.99981.99981,0,1,1,.93311,1.76855L479.32206,411.0674A8.99244,8.99244,0,0,1,475.12211,412.11086Z" transform="translate(-266.03864 -165.87498)" fill="#3f3d56"/><path d="M329.60527,480.19485h-28a8,8,0,0,1,0-16h28a8,8,0,0,1,0,16Z" transform="translate(-266.03864 -165.87498)" fill="#3f3d56"/><path d="M362.60527,507.19485h-61a8,8,0,0,1,0-16h61a8,8,0,0,1,0,16Z" transform="translate(-266.03864 -165.87498)" fill="#3f3d56"/><circle cx="209.00364" cy="246.31986" r="32" fill="#69b190"/></svg>