<svg xmlns="http://www.w3.org/2000/svg" width="208" height="161" viewBox="0 0 208 161" version="1.1"><path d="M 95 1.531 C 95 2.325, 54.092 155.056, 53.024 158.250 C 52.107 160.991, 52.120 161, 56.813 161 L 61.523 161 82.323 83.250 C 93.763 40.487, 103.373 4.488, 103.678 3.250 C 104.193 1.161, 103.902 1, 99.617 1 C 97.077 1, 95 1.239, 95 1.531 M 44.299 22.041 C -12.361 32.153, -15.326 109.489, 40.500 121.102 C 54.156 123.942, 55.448 123.787, 56.842 119.134 C 58.656 113.078, 58.589 113, 51.605 113 C 18.600 113, 0.431 82.737, 15.538 52.925 C 24.824 34.600, 52.559 25.320, 74 33.365 C 76.475 34.293, 78.902 35.153, 79.393 35.276 C 79.884 35.399, 80.838 33.407, 81.514 30.848 L 82.743 26.197 76.121 23.971 C 68.608 21.445, 52.958 20.496, 44.299 22.041 M 102.138 31.206 C 101.673 32.468, 100.995 34.733, 100.630 36.239 L 99.967 38.979 143.497 39.239 L 187.027 39.500 154.398 64.500 C 136.453 78.250, 121.153 89.856, 120.398 90.292 C 119.466 90.831, 114.631 87.686, 105.286 80.461 L 91.545 69.838 90.321 74.634 C 89.648 77.272, 89.188 79.477, 89.299 79.534 C 89.409 79.591, 94.319 83.335, 100.209 87.853 C 120.723 103.589, 117.016 104.616, 161.170 70.969 C 180.564 56.190, 196.552 44.219, 196.700 44.366 C 197.225 44.891, 175.789 123.522, 174.789 124.741 C 174.009 125.690, 162.381 126.042, 125.179 126.241 L 76.588 126.500 75.347 130.785 L 74.107 135.069 124.882 134.785 L 175.658 134.500 179.182 131.811 C 183.794 128.292, 207 49.454, 207 37.305 C 207 29.169, 209.472 29.539, 152.888 29.206 L 102.984 28.913 102.138 31.206 M 44.589 44.118 C 23.629 49.035, 13.459 82.270, 28.931 95.288 C 35.427 100.754, 45.326 101.314, 53.352 96.670 L 57.500 94.270 59.933 97.264 L 62.365 100.257 68.188 79.879 C 71.390 68.670, 74.873 56.462, 75.928 52.750 L 77.846 46 72.531 46 C 67.741 46, 67.157 46.239, 66.609 48.423 L 66 50.847 63.171 48.018 C 58.736 43.582, 52.475 42.269, 44.589 44.118 M 48 52.704 C 38.738 56.074, 32.348 74.561, 36.945 84.687 C 42.433 96.774, 57.027 90.163, 61.523 73.553 C 65.501 58.858, 58.930 48.727, 48 52.704" stroke="none" 
    fill="#fc958d" fill-rule="evenodd"/>
</svg>